<svg version="1.1" xmlns="http://www.w3.org/2000/svg" x="0" y="0" viewBox="0 0 1024 1024" xml:space="preserve"><title>A logo in the shape of an open book</title><path d="M 594.500 222.684 C 579.816 234.027, 570.925 244.864, 564.644 259.076 C 561.842 265.415, 558.469 280.541, 557.121 292.813 C 556.619 297.385, 556.022 301.312, 555.794 301.540 C 555.566 301.768, 554.421 301.282, 553.249 300.462 C 551.796 299.444, 550.923 297.462, 550.506 294.235 C 548.820 281.190, 549.159 282, 545.379 282 C 538.682 282, 518.641 294.545, 505.916 306.702 C 479.499 331.942, 456.671 373.096, 451.669 404.500 C 449.702 416.851, 449.588 437.533, 451.429 448.005 C 457.176 480.686, 473.999 510.876, 509.379 552 C 515.767 559.425, 527.557 573.375, 535.578 583 C 561.763 614.420, 578.964 645.681, 587.542 677.438 C 588.870 682.354, 589.821 686.513, 589.654 686.679 C 589.488 686.845, 586.913 681.698, 583.931 675.241 C 571.501 648.322, 548.793 619.049, 511.987 582.500 C 486.164 556.858, 476.989 546.382, 461.625 525 C 450.370 509.337, 445.579 499.962, 439.441 481.594 C 435.821 470.761, 434.739 465.739, 433.507 454.065 C 430.459 425.182, 432.397 403.704, 440.144 380.525 C 443.690 369.915, 454.861 347.877, 462.707 336.012 C 475.686 316.388, 498.249 295.932, 517.771 286.091 C 525.216 282.338, 538.531 277.255, 542.811 276.532 C 546.614 275.889, 546.989 275.544, 547.552 272.167 C 547.888 270.150, 548.832 266.078, 549.648 263.117 C 550.465 260.156, 550.764 257.364, 550.313 256.913 C 548.951 255.551, 535.136 254.281, 524.500 254.539 C 512.405 254.833, 499.758 257.519, 481.848 263.595 C 463.325 269.880, 451.198 272.895, 439.500 274.123 C 428.253 275.305, 412.020 274.512, 405.156 272.447 C 402.647 271.691, 400.423 271.243, 400.215 271.451 C 399.379 272.287, 414.929 281.860, 421.136 284.331 C 431.395 288.415, 437.409 289.424, 451.699 289.464 C 458.959 289.484, 464.584 289.796, 464.199 290.159 C 462.089 292.146, 449.477 298.217, 442.889 300.416 C 434.897 303.083, 421.293 305.397, 407 306.520 C 390.789 307.794, 367.214 303.314, 348.057 295.320 C 342.313 292.923, 337.240 291.087, 336.783 291.239 C 335.316 291.728, 349.535 305.610, 356.004 310.003 C 373.541 321.912, 398.634 328.963, 415.873 326.827 C 419.929 326.325, 423.449 326.115, 423.696 326.362 C 424.560 327.227, 403.731 340.254, 394.465 344.644 C 381.982 350.557, 360.893 357.403, 345.655 360.488 C 324.216 364.829, 297.549 363.591, 279.100 357.398 C 274.938 356, 270.963 354.384, 270.267 353.806 C 268.222 352.110, 268.808 354.253, 271.451 358.143 C 277.049 366.381, 294.756 377.711, 310.228 382.952 C 328.899 389.278, 350.742 390.217, 368.500 385.456 C 382.422 381.723, 383.405 381.536, 382.648 382.760 C 382.291 383.338, 379.862 385.046, 377.250 386.556 C 357.322 398.075, 335.042 421.474, 325.151 441.271 C 315.188 461.213, 311.701 476.320, 311.712 499.500 C 311.721 519.701, 314.796 533.358, 322.373 546.850 L 326.500 554.199 327.209 539.850 C 328.408 515.565, 330.883 505.920, 341.009 486.069 C 348.066 472.234, 357.563 460.276, 371.565 447.595 C 381.714 438.404, 384.427 437.612, 379.065 445.406 C 371.118 456.957, 362.881 477.868, 360.852 491.649 C 360.216 495.967, 359.708 504.900, 359.724 511.500 C 359.801 544.122, 368.663 566.261, 390.452 588.266 C 402.781 600.717, 413.681 607.858, 435.889 618.037 C 447.116 623.183, 470.608 633, 471.695 633 C 471.870 633, 468.522 629.905, 464.256 626.123 C 454.088 617.107, 442.192 604.712, 432.744 593.287 C 409.914 565.681, 399.762 541.522, 397.004 508.235 C 395.327 487.998, 395.755 487.614, 401.926 503.807 C 408.169 520.186, 416.727 535.026, 428.852 550.500 C 435.709 559.251, 458.088 581.532, 468.021 589.497 C 487.186 604.865, 519.480 633.758, 528.643 643.735 C 554.809 672.224, 578.684 707.030, 580.535 719.387 L 581.151 723.500 594.825 723.257 C 602.346 723.123, 621.550 722.842, 637.500 722.633 C 670.695 722.197, 677.198 721.226, 695.003 714.047 C 712.452 707.012, 722.908 700.136, 736.090 687.026 C 752.940 670.270, 761.326 655.453, 768.304 630.109 L 771.500 618.500 771.802 477.500 C 772.011 380.306, 771.766 333.549, 771.014 327 C 768.996 309.418, 759.748 286.342, 748.188 270.048 C 742.389 261.873, 731.123 249.982, 724 244.515 C 707.253 231.664, 683.463 222.106, 664.875 220.763 L 659.251 220.356 660.634 223.667 C 661.395 225.488, 662.307 231.708, 662.661 237.489 C 663.224 246.698, 663.527 248, 665.100 248 C 671.167 248, 692.315 256.767, 702 263.298 C 712.130 270.128, 723.984 282.736, 730.099 293.184 C 735.144 301.804, 740.723 318.528, 741.913 328.595 C 742.457 333.207, 742.772 394.819, 742.667 476.500 L 742.488 616.500 740.124 625 C 735.123 642.984, 727.231 655.762, 712.326 670.012 C 704.227 677.755, 701.336 679.783, 691.703 684.483 C 675.268 692.500, 671.842 693.139, 642.104 693.725 L 616.708 694.225 617.372 691.862 C 620.955 679.110, 622.146 646.606, 619.603 630.942 C 614.381 598.775, 602.190 570.064, 578.227 533.500 C 551.279 492.382, 542.138 470.474, 541.359 445.139 L 541.009 433.777 535.673 428.013 C 528.759 420.546, 525.707 415.224, 522.012 404.194 C 519.390 396.370, 519 393.780, 519 384.208 C 519 370.426, 521.067 363.217, 528.117 352.418 C 533.169 344.679, 544.818 332, 546.876 332 C 547.460 332, 546.401 334.622, 544.522 337.826 C 537.309 350.135, 534.849 359.983, 534.875 376.458 C 534.895 389.491, 537.151 399.537, 542.181 409 C 552.199 427.849, 563.555 436.779, 586.500 443.852 C 598.223 447.466, 607.619 453.240, 619.176 463.930 C 629.838 473.793, 633.621 479.327, 637.160 490.242 C 641.125 502.467, 644.178 507.523, 649.718 511.036 C 662.422 519.093, 686.171 515.108, 695.917 503.285 C 700.207 498.080, 705.845 484.199, 708.123 473.230 C 710.256 462.964, 710.188 462.632, 704.497 455.500 C 696.212 445.119, 683.517 422.588, 671.534 397 C 660.920 374.334, 658.903 368.758, 658.264 360.308 C 657.817 354.402, 657.119 352.013, 654.831 348.558 C 650.145 341.485, 638.101 329.782, 629 323.460 C 619.871 317.119, 611.484 309.773, 609.818 306.660 C 609.079 305.280, 609.879 305.598, 612.644 307.787 C 618.303 312.265, 628.648 317.603, 635.500 319.580 C 642.398 321.571, 656.394 321.771, 663.143 319.976 C 678.072 316.004, 691.984 302.096, 695.590 287.538 L 696.323 284.576 692.412 287.657 C 680.609 296.955, 670.243 300.652, 659.088 299.543 C 645.737 298.216, 635.339 293.842, 621.873 283.891 C 618.228 281.197, 611.882 276.797, 607.770 274.113 L 600.294 269.232 598.701 271.929 C 594.810 278.516, 586.928 287.297, 580.250 292.483 C 576.263 295.580, 573 297.790, 573 297.393 C 573 295.074, 583.381 278.783, 588.234 273.487 C 595.192 265.892, 598.460 259.637, 600.564 249.883 C 602.407 241.341, 603.704 218.532, 602.389 217.784 C 601.900 217.505, 598.350 219.710, 594.500 222.684 M 378.917 219.371 C 378.688 219.575, 375.350 220.024, 371.500 220.369 C 361.715 221.246, 354.102 223.241, 342.500 227.969 C 307.089 242.400, 280.109 270.781, 269.627 304.626 C 266.641 314.270, 263.720 330.155, 264.763 331.079 C 265.168 331.438, 268.927 332.265, 273.116 332.917 C 277.304 333.569, 283.461 334.929, 286.798 335.939 L 292.865 337.776 293.516 331.138 C 295.169 314.303, 301.326 297.304, 310.354 284.652 C 316.730 275.717, 328.259 265.210, 337.866 259.578 C 358.575 247.439, 365.300 246.337, 420 246.120 C 442.825 246.030, 463.525 245.696, 466 245.378 C 468.475 245.060, 473.522 243.735, 477.216 242.434 C 489.482 238.112, 507.370 233.944, 517.640 233.015 C 527.407 232.131, 546.494 233.004, 550.236 234.506 C 551.504 235.015, 552.220 234.551, 552.891 232.786 C 553.397 231.457, 556.148 227.811, 559.005 224.684 L 564.201 219 471.767 219 C 420.928 219, 379.146 219.167, 378.917 219.371 M 624.192 222.500 C 624.318 225.846, 625.275 226.982, 626.415 225.137 C 626.709 224.663, 628.977 223.707, 631.455 223.013 C 633.934 222.319, 636.476 221.132, 637.103 220.375 C 638.054 219.230, 637.058 219, 631.153 219 L 624.061 219 624.192 222.500 M 641 241.723 C 635.170 243.921, 609.154 267.822, 610.399 269.837 C 610.753 270.409, 613.395 272.254, 616.271 273.937 C 619.147 275.620, 623.602 278.589, 626.171 280.535 L 630.842 284.074 633.353 280.781 C 634.735 278.970, 637.299 273.908, 639.051 269.531 C 641.669 262.995, 642.331 259.739, 642.762 251.287 C 643.051 245.629, 643.110 241.036, 642.894 241.079 C 642.677 241.122, 641.825 241.412, 641 241.723 M 593.127 349.595 C 594.572 351.193, 596.517 354.849, 597.448 357.720 C 599.607 364.376, 603.306 367.518, 610.740 369.011 C 613.908 369.647, 617.482 370.396, 618.683 370.675 C 620.854 371.180, 620.858 371.151, 619.479 365.240 C 616.675 353.223, 614.682 351.436, 601.758 349.356 C 596.734 348.547, 592.145 347.616, 591.562 347.288 C 590.978 346.959, 591.682 347.998, 593.127 349.595 M 263.260 500.750 C 263.596 610.513, 263.640 612.665, 265.728 621.777 C 270.166 641.136, 277.134 657.032, 287.523 671.500 C 297.836 685.861, 304.746 692.503, 320 702.718 C 329.631 709.168, 337.507 713.068, 347.500 716.335 C 367.218 722.782, 359.291 722.351, 465.250 722.739 C 549.328 723.046, 562 722.902, 562 721.640 C 562 720.842, 560.465 715.533, 558.588 709.844 C 556.712 704.155, 554.903 698.263, 554.569 696.750 L 553.962 694 472.231 693.887 C 427.279 693.825, 387.125 693.610, 383 693.411 C 361.277 692.359, 341.990 684.416, 324.406 669.280 C 313.003 659.464, 302.045 643.255, 297.994 630.212 C 292.729 613.257, 292.683 612.159, 292.739 504.296 L 292.791 404.091 287.645 402.406 C 280.278 399.994, 271.636 395.497, 267.661 392.007 C 265.777 390.353, 263.940 389, 263.577 389 C 263.215 389, 263.072 439.288, 263.260 500.750 M 679 467 C 676.230 469.770, 676.340 475.875, 679.227 479.615 C 681.995 483.202, 684.113 484.927, 685.801 484.968 C 687.361 485.006, 689.699 479.732, 690.589 474.169 C 691.143 470.706, 690.873 469.782, 688.662 467.571 C 685.582 464.491, 681.736 464.264, 679 467 M 673.764 593.282 C 672.258 594.502, 669.855 596.408, 668.422 597.518 C 663.412 601.399, 662.989 616.167, 667.687 623.159 C 673.789 632.239, 688.601 631.484, 696.406 621.694 C 698.966 618.484, 699.501 616.832, 699.821 611.154 C 700.181 604.789, 700.018 604.176, 696.837 599.960 C 690.623 591.725, 679.614 588.539, 673.764 593.282" stroke="none" fill="#000000" fill-rule="evenodd"/></svg>